<svg width="28" height="31" viewBox="0 0 28 31" fill="none" xmlns="http://www.w3.org/2000/svg">
<path d="M23.8062 4.37741C21.1875 1.55327 17.7 0 13.9937 0C6.34375 0 0.11875 6.69723 0.11875 14.9276C0.11875 17.5567 0.75625 20.1253 1.96875 22.3913L0 30.1241L7.35625 28.0463C9.38125 29.2365 11.6625 29.8619 13.9875 29.8619H13.9937C21.6375 29.8619 28 23.1646 28 14.9343C28 10.9469 26.425 7.20154 23.8062 4.37741ZM13.9937 27.347C11.9187 27.347 9.8875 26.7486 8.11875 25.6189L7.7 25.35L3.3375 26.5805L4.5 22.0013L4.225 21.5307C3.06875 19.5538 2.4625 17.2743 2.4625 14.9276C2.4625 8.08913 7.6375 2.52155 14 2.52155C17.0812 2.52155 19.975 3.81258 22.15 6.1593C24.325 8.50602 25.6625 11.6193 25.6562 14.9343C25.6562 21.7794 20.35 27.347 13.9937 27.347ZM20.3188 18.0543C19.975 17.866 18.2688 16.965 17.95 16.8439C17.6313 16.7162 17.4 16.6557 17.1688 17.0322C16.9375 17.4088 16.275 18.2426 16.0688 18.4981C15.8688 18.7469 15.6625 18.7805 15.3188 18.5922C13.2812 17.4962 11.9438 16.6355 10.6 14.1543C10.2438 13.4953 10.9562 13.5424 11.6187 12.1169C11.7312 11.8681 11.675 11.6529 11.5875 11.4646C11.5 11.2764 10.8063 9.44067 10.5188 8.6943C10.2375 7.96809 9.95 8.06895 9.7375 8.0555C9.5375 8.04206 9.30625 8.04206 9.075 8.04206C8.84375 8.04206 8.46875 8.13619 8.15 8.50602C7.83125 8.88257 6.9375 9.78361 6.9375 11.6193C6.9375 13.455 8.18125 15.2301 8.35 15.4789C8.525 15.7277 10.7937 19.4932 14.275 21.1138C16.475 22.1358 17.3375 22.2232 18.4375 22.0484C19.1063 21.9408 20.4875 21.1474 20.775 20.2732C21.0625 19.3991 21.0625 18.6527 20.975 18.4981C20.8938 18.33 20.6625 18.2358 20.3188 18.0543Z" fill="black"/>
</svg>
