<svg width="28" height="31" viewBox="0 0 28 31" fill="none" xmlns="http://www.w3.org/2000/svg">
<path d="M27.4149 4.7134C27.0929 2.8581 26.1441 1.39693 24.9394 0.901056C22.7558 0 14 0 14 0C14 0 5.2442 0 3.06058 0.901056C1.8559 1.397 0.907111 2.8581 0.585087 4.7134C0 8.07624 0 15.0925 0 15.0925C0 15.0925 0 22.1087 0.585087 25.4716C0.907111 27.3269 1.8559 28.7272 3.06058 29.223C5.2442 30.1241 14 30.1241 14 30.1241C14 30.1241 22.7558 30.1241 24.9394 29.223C26.1441 28.7272 27.0929 27.3269 27.4149 25.4716C28 22.1087 28 15.0925 28 15.0925C28 15.0925 28 8.07624 27.4149 4.7134ZM11.1363 21.4627V8.72226L18.4545 15.0926L11.1363 21.4627Z" fill="black"/>
</svg>
